<svg width="81" height="65" viewBox="0 0 81 65" fill="none" xmlns="http://www.w3.org/2000/svg">
<g clip-path="url(#clip0_21_914)">
<path d="M81 1.37684V54.3146C79.73 54.7599 78.4644 55.5685 77.1881 55.5854C68.5954 55.6994 60.0018 55.6452 51.4081 55.6452H49.2126C48.6602 59.6286 51.4667 61.7417 53.5583 64.212C50.9312 65.3893 29.9152 65.2014 28.0767 63.9983C30.2189 61.6518 32.8025 59.4637 32.2217 55.6398H29.8032C21.0675 55.6398 12.3318 55.6398 3.59606 55.6398C0.648326 55.6398 0.00444069 54.9755 0.00355255 51.9735C-0.00118418 35.8281 -0.00118418 19.6832 0.00355255 3.53903C0.00355255 0.680419 0.649216 0.0134449 3.49304 0.0125543C28.2081 0.00543007 52.9233 0.0235689 77.6384 0.0669082C78.7601 0.0642366 79.88 0.91643 81 1.37684ZM77.5247 3.36097H3.53746V44.876H77.5247V3.36097ZM42.6209 51.8185C41.7327 51.0865 41.1252 50.2271 40.6669 50.2992C40.0337 50.3971 39.5124 51.2015 38.9404 51.7028C39.4786 52.2371 39.9511 53.068 40.5755 53.2052C41.0338 53.3013 41.6857 52.4865 42.6209 51.815V51.8185Z" fill="white"/>
<path d="M42.6206 51.8147C41.6854 52.4862 41.03 53.3009 40.5779 53.2012C39.9562 53.0641 39.4811 52.2323 38.9429 51.6989C39.5131 51.1975 40.0362 50.3934 40.6694 50.2955C41.1224 50.2233 41.7307 51.0827 42.6206 51.8147Z" fill="white"/>
<path d="M16.8287 23.5881V29.2643H14.1057V16.1734H16.752V21.1783H16.8671C17.0886 20.5988 17.4466 20.145 17.9409 19.8168C18.4352 19.4845 19.0553 19.3183 19.801 19.3183C20.4828 19.3183 21.0773 19.4674 21.5844 19.7657C22.0957 20.0597 22.4921 20.4837 22.7733 21.0377C23.0588 21.5874 23.1994 22.2458 23.1952 23.0129V29.2643H20.4722V23.4987C20.4764 22.8935 20.323 22.4227 20.0119 22.086C19.7051 21.7494 19.2747 21.581 18.7207 21.581C18.35 21.581 18.0219 21.6599 17.7364 21.8175C17.4551 21.9752 17.2335 22.2053 17.0716 22.5079C16.9139 22.8062 16.833 23.1663 16.8287 23.5881ZM30.5604 19.4461V21.4916H24.6478V19.4461H30.5604ZM25.9901 17.0938H28.7131V26.2472C28.7131 26.4987 28.7515 26.6947 28.8282 26.8353C28.9049 26.9717 29.0114 27.0675 29.1478 27.1229C29.2884 27.1783 29.4503 27.206 29.6336 27.206C29.7614 27.206 29.8892 27.1954 30.0171 27.1741C30.1449 27.1485 30.2429 27.1293 30.3111 27.1166L30.7394 29.1428C30.603 29.1854 30.4113 29.2345 30.1641 29.2899C29.9169 29.3495 29.6165 29.3857 29.2628 29.3985C28.6066 29.4241 28.0313 29.3367 27.537 29.1364C27.0469 28.9362 26.6655 28.6251 26.3928 28.2032C26.1201 27.7813 25.9858 27.2487 25.9901 26.6052V17.0938ZM37.5565 19.4461V21.4916H31.6439V19.4461H37.5565ZM32.9862 17.0938H35.7092V26.2472C35.7092 26.4987 35.7476 26.6947 35.8243 26.8353C35.901 26.9717 36.0075 27.0675 36.1439 27.1229C36.2845 27.1783 36.4464 27.206 36.6297 27.206C36.7575 27.206 36.8853 27.1954 37.0132 27.1741C37.141 27.1485 37.239 27.1293 37.3072 27.1166L37.7355 29.1428C37.5991 29.1854 37.4074 29.2345 37.1602 29.2899C36.913 29.3495 36.6126 29.3857 36.2589 29.3985C35.6027 29.4241 35.0274 29.3367 34.5331 29.1364C34.043 28.9362 33.6616 28.6251 33.3889 28.2032C33.1162 27.7813 32.9819 27.2487 32.9862 26.6052V17.0938ZM39.3303 32.9461V19.4461H42.015V21.0952H42.1364C42.2557 20.831 42.4283 20.5626 42.6542 20.2899C42.8843 20.0129 43.1826 19.7827 43.549 19.5995C43.9198 19.412 44.38 19.3183 44.9297 19.3183C45.6456 19.3183 46.3062 19.5058 46.9113 19.8808C47.5164 20.2515 48 20.8119 48.3623 21.5619C48.7245 22.3076 48.9056 23.243 48.9056 24.368C48.9056 25.4631 48.7287 26.3879 48.375 27.1421C48.0256 27.8921 47.5483 28.461 46.9432 28.8488C46.3424 29.2323 45.6691 29.4241 44.9233 29.4241C44.3949 29.4241 43.9454 29.3367 43.5746 29.162C43.2081 28.9873 42.9077 28.7678 42.6733 28.5036C42.439 28.2352 42.26 27.9646 42.1364 27.6918H42.0533V32.9461H39.3303ZM41.9958 24.3552C41.9958 24.939 42.0767 25.4482 42.2387 25.8829C42.4006 26.3175 42.635 26.6563 42.9418 26.8992C43.2486 27.1379 43.6215 27.2572 44.0604 27.2572C44.5036 27.2572 44.8786 27.1357 45.1854 26.8928C45.4922 26.6457 45.7245 26.3048 45.8821 25.8701C46.0441 25.4312 46.125 24.9262 46.125 24.3552C46.125 23.7884 46.0462 23.2899 45.8885 22.8595C45.7309 22.4291 45.4986 22.0924 45.1918 21.8495C44.885 21.6066 44.5079 21.4852 44.0604 21.4852C43.6172 21.4852 43.2422 21.6024 42.9354 21.8367C42.6329 22.0711 42.4006 22.4035 42.2387 22.8339C42.0767 23.2643 41.9958 23.7714 41.9958 24.3552ZM52.3125 29.4305C51.8907 29.4305 51.5285 29.2813 51.2259 28.983C50.9276 28.6805 50.7785 28.3183 50.7785 27.8964C50.7785 27.4788 50.9276 27.1208 51.2259 26.8225C51.5285 26.5242 51.8907 26.3751 52.3125 26.3751C52.7216 26.3751 53.0796 26.5242 53.3864 26.8225C53.6932 27.1208 53.8466 27.4788 53.8466 27.8964C53.8466 28.1776 53.7742 28.4354 53.6293 28.6698C53.4887 28.8999 53.3033 29.0853 53.0732 29.2259C52.8431 29.3623 52.5895 29.4305 52.3125 29.4305ZM52.3125 22.5526C51.8907 22.5526 51.5285 22.4035 51.2259 22.1052C50.9276 21.8069 50.7785 21.4447 50.7785 21.0185C50.7785 20.6009 50.9276 20.2451 51.2259 19.9511C51.5285 19.6528 51.8907 19.5036 52.3125 19.5036C52.7216 19.5036 53.0796 19.6528 53.3864 19.9511C53.6932 20.2451 53.8466 20.6009 53.8466 21.0185C53.8466 21.3041 53.7742 21.564 53.6293 21.7984C53.4887 22.0285 53.3033 22.2117 53.0732 22.3481C52.8431 22.4845 52.5895 22.5526 52.3125 22.5526ZM61.784 15.5597L57.5652 31.233H55.2193L59.4381 15.5597H61.784ZM68.7976 15.5597L64.5789 31.233H62.233L66.4517 15.5597H68.7976Z" fill="white"/>
</g>
<defs>
<clipPath id="clip0_21_914">
<rect width="81" height="65" fill="white"/>
</clipPath>
</defs>
</svg>
