<svg width="77" height="73" viewBox="0 0 77 73" fill="none" xmlns="http://www.w3.org/2000/svg">
<path d="M33.0229 56.1397C32.5884 56.1397 32.2176 56.1397 31.8467 56.1397C31.2726 56.1556 30.7014 56.0513 30.1682 55.8334C29.635 55.6154 29.1511 55.2882 28.7462 54.8721C28.3414 54.456 28.0241 53.9597 27.8139 53.4137C27.6038 52.8678 27.5052 52.2837 27.5243 51.6974C27.5243 48.3512 27.5402 45.005 27.5174 41.6588C27.4592 40.7994 27.6308 39.94 28.0137 39.1724C28.3967 38.4048 28.9766 37.758 29.6916 37.301C30.3397 36.9665 31.0245 36.7119 31.7315 36.5427C32.0288 36.442 32.2069 36.5854 32.3548 36.8781C33.3952 38.9416 34.4554 40.9941 35.5102 43.0491C35.5777 43.1816 35.6535 43.3087 35.7574 43.4977L37.5395 40.2707C37.2049 40.0245 36.9299 39.7033 36.7356 39.3316C36.5413 38.96 36.4329 38.5477 36.4187 38.1266C36.3811 37.8352 36.4437 37.5395 36.5959 37.29C36.748 37.0405 36.9802 36.8528 37.2529 36.7588C37.6611 36.5821 38.1013 36.4961 38.5445 36.5064C38.9877 36.5166 39.4237 36.623 39.8236 36.8184C40.076 36.9228 40.2873 37.1099 40.4246 37.3502C40.5618 37.5904 40.6171 37.8703 40.5819 38.1461C40.5632 38.561 40.455 38.9665 40.2649 39.3337C40.0748 39.7009 39.8076 40.0206 39.4824 40.27L41.2402 43.4977C41.3441 43.311 41.4199 43.184 41.4881 43.0523C42.5498 41.0012 43.619 38.9531 44.6633 36.892C44.712 36.7598 44.8063 36.6504 44.9286 36.5845C45.0508 36.5185 45.1925 36.5007 45.3268 36.5342C46.3828 36.6588 47.3654 37.1485 48.1115 37.922C48.8576 38.6955 49.3223 39.7062 49.4286 40.7866C49.462 41.1515 49.4718 41.5194 49.4726 41.885C49.4756 45.1553 49.4756 48.4251 49.4726 51.6944C49.4941 52.2847 49.396 52.8732 49.1844 53.423C48.9729 53.9728 48.6524 54.472 48.2431 54.8893C47.8338 55.3067 47.3445 55.6331 46.8058 55.8483C46.2672 56.0634 45.6909 56.1627 45.113 56.1397C44.7565 56.1397 44.4001 56.1397 43.9755 56.1397V56.7089C43.9755 60.9103 43.9755 65.112 43.9755 69.3139C44.0071 69.8044 43.9361 70.296 43.7674 70.7564C43.5986 71.2168 43.3359 71.6352 42.9966 71.9839C42.6573 72.3326 42.2493 72.6035 41.7997 72.7787C41.35 72.9539 40.869 73.0293 40.3885 73C39.1024 73 37.816 73 36.5294 73C36.064 73.0174 35.6001 72.9365 35.1667 72.7623C34.7333 72.5881 34.3398 72.3244 34.0109 71.9877C33.6819 71.651 33.4246 71.2484 33.2549 70.8054C33.0853 70.3624 33.0071 69.8883 33.0252 69.413C33.0206 65.1962 33.0206 60.9793 33.0252 56.7624L33.0229 56.1397Z" fill="white"/>
<path d="M57.7265 50.5246V51.1444C57.7265 55.3163 57.7265 59.4879 57.7265 63.6593C57.7636 64.1575 57.6948 64.658 57.5251 65.1266C57.3553 65.5952 57.0886 66.0207 56.743 66.3743C56.3974 66.7279 55.9811 67.0012 55.5227 67.1754C55.0642 67.3495 54.5743 67.4204 54.0865 67.3834C52.7974 67.3834 51.5128 67.3834 50.2266 67.3834C49.3699 67.4114 48.5359 67.0994 47.8996 66.5128C47.2633 65.9261 46.8743 65.1104 46.8141 64.237C46.7163 62.6259 46.7937 61.0032 46.7937 59.3688C48.2057 59.0345 49.4857 58.2717 50.4655 57.1807C51.61 55.9433 52.2521 54.3082 52.262 52.606C52.2855 48.8779 52.2749 45.1491 52.262 41.421C52.2993 39.5277 51.6268 37.6912 50.3821 36.2877L51.2671 34.6472C50.9376 34.3946 50.6677 34.0697 50.4774 33.6965C50.2871 33.3233 50.1812 32.9113 50.1675 32.4908C50.1381 32.2219 50.1957 31.9506 50.3314 31.7183C50.4671 31.486 50.6734 31.3054 50.919 31.2041C51.3251 31.0042 51.7687 30.8963 52.2195 30.8877C52.6703 30.8791 53.1175 30.9702 53.5307 31.1545C53.8103 31.255 54.0453 31.455 54.1925 31.7179C54.3397 31.9807 54.3893 32.2889 54.3322 32.5861C54.2564 33.4095 54.0964 33.7169 53.2304 34.6774L54.992 37.8694C55.0868 37.7067 55.158 37.5975 55.2195 37.4821C56.2811 35.4132 57.3496 33.3467 58.3984 31.2708C58.4431 31.1453 58.5305 31.0405 58.6447 30.9754C58.7589 30.9104 58.8922 30.8896 59.0202 30.9168C60.0695 31.0327 61.05 31.5058 61.8041 32.2601C62.5582 33.0143 63.0419 34.0057 63.1774 35.0747C63.2173 35.4545 63.2376 35.8362 63.2381 36.2181C63.2436 39.4884 63.2436 42.7584 63.2381 46.0282C63.2606 46.6225 63.1632 47.2151 62.9518 47.7692C62.7404 48.3233 62.4196 48.827 62.0093 49.2489C61.5991 49.6709 61.1081 50.0019 60.5672 50.2217C60.0262 50.4414 59.4467 50.5451 58.8648 50.5262C58.5061 50.5269 58.1489 50.5246 57.7265 50.5246Z" fill="white"/>
<path d="M19.272 50.5579C18.6282 50.5269 18.042 50.5439 17.4695 50.4633C16.4311 50.3483 15.4731 49.8382 14.7863 49.0344C14.0994 48.2306 13.734 47.1922 13.7628 46.1257C13.7628 42.795 13.7688 39.4642 13.759 36.1335C13.7199 35.4529 13.816 34.7712 14.0414 34.1295C14.2669 33.4878 14.617 32.8991 15.0709 32.3992C15.835 31.5655 16.8678 31.0415 17.9798 30.923C18.1076 30.8919 18.2422 30.9102 18.3575 30.9746C18.4728 31.039 18.5606 31.1448 18.6039 31.2715C19.6451 33.335 20.7068 35.3877 21.7624 37.4434C21.8284 37.572 21.9027 37.6974 22.0043 37.8818L23.7864 34.6533C23.4579 34.4099 23.1865 34.0947 22.9919 33.7309C22.7974 33.367 22.6846 32.9634 22.6617 32.5495C22.617 32.2665 22.6686 31.9764 22.8078 31.7275C22.947 31.4786 23.1655 31.286 23.4269 31.1817C23.8503 30.9829 24.312 30.8839 24.7779 30.8922C25.2438 30.9005 25.7019 31.0159 26.1182 31.2297C26.3546 31.3338 26.5518 31.5127 26.6806 31.7403C26.8094 31.9679 26.863 32.2318 26.8333 32.493C26.8211 32.9135 26.7154 33.3257 26.5243 33.6983C26.3331 34.071 26.0615 34.3944 25.73 34.6441L26.6043 36.2645C26.5285 36.3699 26.4564 36.4813 26.3768 36.5836C25.3578 37.8082 24.789 39.3576 24.7684 40.9646C24.729 44.922 24.6925 48.881 24.7638 52.8376C24.8294 54.317 25.354 55.7367 26.2618 56.8915C27.1696 58.0462 28.4135 58.8762 29.8136 59.2612L30.2079 59.3773C30.2079 61.0225 30.2951 62.6607 30.1844 64.285C30.1175 65.1506 29.7263 65.9567 29.0921 66.535C28.458 67.1133 27.6299 67.4194 26.7803 67.3896C25.4335 67.3937 24.0869 67.3937 22.7406 67.3896C22.2825 67.4021 21.8266 67.3192 21.4009 67.1458C20.9751 66.9725 20.5884 66.7123 20.2642 66.3813C19.9401 66.0503 19.6854 65.6554 19.5156 65.2205C19.3458 64.7857 19.2645 64.3201 19.2766 63.8521C19.268 59.6177 19.268 55.3848 19.2766 51.1535L19.272 50.5579Z" fill="white"/>
<path d="M16.4734 53.7701C16.4734 55.3394 16.5144 56.8832 16.4628 58.4246C16.4384 59.3302 16.0638 60.189 15.421 60.8132C14.7782 61.4374 13.9196 61.7762 13.0329 61.7553C11.7012 61.7553 10.3696 61.7553 9.03876 61.7553C8.56952 61.7767 8.10107 61.6978 7.66341 61.5237C7.22574 61.3495 6.82849 61.084 6.49708 60.744C6.16566 60.404 5.90737 59.997 5.73875 59.5492C5.57013 59.1014 5.49488 58.6226 5.51783 58.1434C5.51379 53.9715 5.51379 49.7996 5.51783 45.6277V44.9011C5.17411 44.9266 4.82893 44.9233 4.48575 44.8911C3.76213 44.822 3.05011 44.6587 2.36697 44.4053C1.64815 44.0964 1.03833 43.5714 0.61845 42.9002C0.198573 42.2289 -0.0115007 41.4432 0.0161466 40.6471C-0.0126699 37.2095 -0.00431423 33.771 0.0116107 30.3326C-0.0366859 29.2078 0.298976 28.1007 0.961235 27.2006C1.62349 26.3005 2.57124 25.6633 3.64249 25.3979C4.58964 25.1702 4.59192 25.1655 5.04237 26.0454C6.0287 27.9648 7.01453 29.8853 7.99985 31.8067C8.06658 31.9369 8.14164 32.0632 8.24932 32.2576L10.036 29.0221C9.73216 28.8012 9.47661 28.5183 9.2855 28.1912C9.09439 27.8641 8.9719 27.5 8.92578 27.122C8.88103 26.9427 8.87213 26.7562 8.89963 26.5734C8.92712 26.3905 8.99044 26.2151 9.08581 26.0579C9.18117 25.9006 9.30661 25.7645 9.45463 25.6579C9.60264 25.5513 9.77018 25.4764 9.94723 25.4374C10.6357 25.2053 11.3804 25.2147 12.063 25.4644C12.2359 25.505 12.3992 25.5803 12.5434 25.6861C12.6875 25.7918 12.8096 25.9259 12.9024 26.0804C12.9952 26.2348 13.057 26.4065 13.0841 26.5857C13.1112 26.7648 13.1031 26.9478 13.0602 27.1237C13.0171 27.4993 12.8984 27.8618 12.7117 28.1884C12.525 28.5149 12.2742 28.7985 11.975 29.0214C12.2344 29.4985 12.4922 29.944 12.7159 30.4072C12.746 30.4751 12.7604 30.549 12.7581 30.6235C12.7559 30.698 12.7371 30.7711 12.703 30.837C11.4701 32.4018 10.8502 34.3785 10.9634 36.3837C10.9786 39.7919 10.9497 43.2002 10.9725 46.6084C10.9271 48.2297 11.428 49.8176 12.3913 51.1071C13.3546 52.3965 14.722 53.3094 16.2649 53.6927C16.3225 53.7082 16.3763 53.7329 16.4734 53.7701Z" fill="white"/>
<path d="M65.0232 29.0215C64.6847 28.767 64.4085 28.4358 64.2163 28.054C64.0241 27.6722 63.9211 27.2501 63.9153 26.8208C63.8929 26.5822 63.9421 26.3423 64.0566 26.1331C64.1711 25.9238 64.3453 25.7552 64.556 25.6497C64.9903 25.4043 65.4768 25.2714 65.973 25.2628C66.4692 25.2541 66.9599 25.37 67.402 25.6001C67.6368 25.7085 67.831 25.8912 67.9559 26.1213C68.0808 26.3515 68.1296 26.6166 68.0952 26.8774C68.0788 27.2989 67.9682 27.711 67.7716 28.082C67.5751 28.453 67.298 28.773 66.9615 29.0175L68.742 32.2507C68.8383 32.0849 68.9089 31.9773 68.9695 31.8634C70.0312 29.7945 71.1004 27.7286 72.1485 25.652C72.1968 25.5202 72.2909 25.4112 72.4128 25.3456C72.5347 25.2801 72.676 25.2626 72.8097 25.2964C73.9595 25.4328 75.0199 25.9964 75.789 26.8798C76.5582 27.7633 76.9823 28.905 76.9805 30.0873C76.998 33.6636 77.023 37.2397 76.9745 40.8144C76.9309 41.922 76.4659 42.9686 75.6785 43.7312C74.891 44.4939 73.8432 44.9126 72.7581 44.8982C72.3577 44.9098 71.9558 44.8982 71.4841 44.8982V45.5177C71.4841 49.6896 71.4515 53.8617 71.4978 58.0336C71.5205 58.53 71.4415 59.0256 71.2658 59.489C71.0901 59.9524 70.8217 60.3733 70.4776 60.7246C70.1336 61.0759 69.7214 61.3499 69.2677 61.5291C68.814 61.7083 68.3286 61.7889 67.8426 61.7655C66.5595 61.6981 65.2704 61.7553 63.9835 61.7522C63.5297 61.7617 63.0788 61.6781 62.6573 61.506C62.2359 61.334 61.8525 61.0772 61.5301 60.7509C61.2077 60.4246 60.9528 60.0355 60.7805 59.6066C60.6081 59.1778 60.522 58.7179 60.5271 58.2543C60.5142 56.8794 60.5346 55.5038 60.5172 54.1289C60.5134 53.8253 60.615 53.7276 60.8903 53.6393C62.1882 53.2903 63.3576 52.5606 64.2541 51.5404C65.1507 50.5203 65.7352 49.2543 65.9355 47.8988C66.0013 47.5072 66.0314 47.1102 66.0257 46.7129C66.0297 43.1064 66.0275 39.5001 66.0189 35.8937C66.0612 34.0716 65.4643 32.2939 64.3361 30.8819C64.293 30.8064 64.2672 30.7218 64.2608 30.6346C64.2544 30.5474 64.2674 30.4598 64.299 30.3785C64.5052 29.9269 64.7646 29.4971 65.0232 29.0215Z" fill="white"/>
<path d="M38.4961 16.8047C37.4123 16.8041 36.3531 16.475 35.4525 15.8592C34.5519 15.2434 33.8504 14.3684 33.4369 13.3452C33.0233 12.322 32.9163 11.1965 33.1293 10.1111C33.3423 9.02568 33.8658 8.02934 34.6335 7.24799C35.4012 6.46664 36.3786 5.93537 37.442 5.7217C38.5054 5.50803 39.6069 5.62142 40.6072 6.04753C41.6075 6.47364 42.4614 7.19331 43.0611 8.11542C43.6607 9.03753 43.9791 10.1208 43.9758 11.2278C43.9779 11.9624 43.8375 12.6903 43.5626 13.3692C43.2877 14.0481 42.8838 14.6646 42.3743 15.1831C41.8648 15.7017 41.2597 16.1121 40.5941 16.3904C39.9284 16.6687 39.2153 16.8095 38.4961 16.8047Z" fill="white"/>
<path d="M57.7262 22.4707C57.7195 23.5773 57.3915 24.6569 56.784 25.5732C56.1764 26.4894 55.3164 27.2012 54.3129 27.6182C53.3093 28.0352 52.2072 28.1387 51.146 27.9158C50.0848 27.693 49.1121 27.1538 48.3509 26.3663C47.5898 25.5787 47.0744 24.5784 46.8699 23.4916C46.6654 22.4049 46.7811 21.2805 47.2022 20.2609C47.6234 19.2413 48.3311 18.3721 49.2359 17.7634C50.1406 17.1546 51.2018 16.8336 52.2852 16.8409C53.005 16.8434 53.7172 16.9914 54.3808 17.2761C55.0444 17.5608 55.6464 17.9768 56.152 18.5C56.6577 19.0232 57.0571 19.6432 57.3273 20.3247C57.5975 21.0061 57.733 21.7355 57.7262 22.4707V22.4707Z" fill="white"/>
<path d="M19.2714 22.4071C19.2807 21.3002 19.6113 20.2211 20.2212 19.3062C20.8312 18.3912 21.6931 17.6815 22.698 17.267C23.7029 16.8525 24.8056 16.7518 25.8665 16.9775C26.9274 17.2032 27.899 17.7453 28.6583 18.5352C29.4175 19.325 29.9304 20.3271 30.132 21.4147C30.3335 22.5023 30.2147 23.6266 29.7906 24.6452C29.3665 25.6639 28.6561 26.5313 27.7494 27.1375C26.8426 27.7437 25.7801 28.0616 24.6965 28.0509C23.9769 28.0462 23.2653 27.8962 22.6026 27.6097C21.9399 27.3232 21.3392 26.9057 20.8351 26.3812C20.3309 25.8568 19.9332 25.2357 19.6649 24.5537C19.3965 23.8717 19.2628 23.1421 19.2714 22.4071V22.4071Z" fill="white"/>
<path d="M10.9963 22.4257C9.91186 22.4259 8.85172 22.0975 7.9501 21.4819C7.04849 20.8663 6.34593 19.9913 5.93137 18.9677C5.51681 17.9441 5.40888 16.818 5.62124 15.7317C5.8336 14.6454 6.35672 13.6479 7.12436 12.8654C7.892 12.0829 8.86965 11.5507 9.93357 11.3361C10.9975 11.1214 12.0998 11.2341 13.1011 11.6596C14.1023 12.0852 14.9575 12.8045 15.5583 13.7268C16.159 14.649 16.4784 15.7325 16.476 16.8402C16.4795 17.5757 16.34 18.3045 16.0657 18.9845C15.7914 19.6645 15.3877 20.2822 14.878 20.8017C14.3683 21.3212 13.7628 21.7322 13.0965 22.011C12.4302 22.2898 11.7164 22.4308 10.9963 22.4257V22.4257Z" fill="white"/>
<path d="M65.9967 22.4257C64.9128 22.4243 63.8536 22.0946 62.9532 21.4781C62.0528 20.8615 61.3517 19.986 60.9387 18.9624C60.5256 17.9387 60.4192 16.8128 60.6328 15.7273C60.8465 14.6418 61.3706 13.6455 62.1388 12.8644C62.907 12.0833 63.8848 11.5525 64.9485 11.3392C66.0122 11.126 67.1139 11.24 68.1142 11.6666C69.1144 12.0932 69.9684 12.8131 70.5678 13.7356C71.1673 14.6581 71.4853 15.7415 71.4817 16.8487C71.4827 17.5835 71.3413 18.3114 71.0657 18.9902C70.7901 19.6689 70.3858 20.2853 69.8759 20.8037C69.3661 21.3221 68.7608 21.7324 68.095 22.0108C67.4293 22.2892 66.7161 22.4301 65.9967 22.4257V22.4257Z" fill="white"/>
<path d="M38.4906 22.4763C39.5743 22.4744 40.6342 22.8011 41.5361 23.4148C42.438 24.0286 43.1414 24.9017 43.5572 25.9239C43.973 26.9461 44.0825 28.0714 43.8719 29.1573C43.6613 30.2431 43.1401 31.2408 42.3741 32.0239C41.6082 32.8071 40.632 33.3405 39.5691 33.5567C38.5063 33.7728 37.4046 33.6619 36.4034 33.2382C35.4022 32.8145 34.5465 32.097 33.9448 31.1764C33.3431 30.2557 33.0223 29.1733 33.023 28.0663C33.0187 27.3314 33.1571 26.603 33.4303 25.9231C33.7035 25.2433 34.106 24.6255 34.6145 24.1056C35.123 23.5857 35.7274 23.1741 36.3927 22.8944C37.0581 22.6147 37.7711 22.4726 38.4906 22.4763V22.4763Z" fill="white"/>
<path d="M22.0098 -7.36817e-05C23.0938 0.0031604 24.1525 0.334913 25.0519 0.953029C25.9513 1.57115 26.651 2.44787 27.0623 3.47232C27.4736 4.49678 27.5781 5.6228 27.3626 6.70795C27.1471 7.79311 26.6212 8.78865 25.8516 9.5684C25.0819 10.3481 24.1031 10.877 23.039 11.0883C21.9749 11.2995 20.8733 11.1836 19.8738 10.755C18.8742 10.3265 18.0216 9.6048 17.4238 8.6811C16.826 7.75741 16.51 6.67337 16.5157 5.56612C16.5141 4.83083 16.6554 4.1026 16.9314 3.42353C17.2075 2.74447 17.6129 2.12798 18.124 1.61018C18.6351 1.09238 19.2417 0.683509 19.9087 0.407075C20.5758 0.130642 21.29 -0.00776693 22.0098 -7.36817e-05Z" fill="white"/>
<path d="M55.0282 7.74183e-05C56.1124 0.00455306 57.171 0.337581 58.0698 0.956962C58.9686 1.57634 59.6673 2.45423 60.0773 3.47947C60.4874 4.50471 60.5904 5.63118 60.3732 6.71624C60.1561 7.80129 59.6286 8.79614 58.8576 9.57479C58.0866 10.3534 57.1067 10.8809 56.042 11.0903C54.9773 11.2997 53.8757 11.1817 52.8767 10.7512C51.8777 10.3208 51.0263 9.59726 50.4302 8.67218C49.834 7.7471 49.52 6.66201 49.528 5.55455C49.5291 4.82009 49.6727 4.09326 49.9503 3.41574C50.2279 2.73822 50.634 2.12349 51.1454 1.60711C51.6567 1.09074 52.263 0.682858 52.9294 0.407037C53.5959 0.131216 54.3092 -0.00708101 55.0282 7.74183e-05V7.74183e-05Z" fill="white"/>
</svg>
