<svg width="78" height="80" viewBox="0 0 78 80" fill="none" xmlns="http://www.w3.org/2000/svg">
<g clip-path="url(#clip0_21_905)">
<path d="M0 23.728C1.422 19.915 4.09305 17.954 8.22205 18.403C9.10159 18.536 9.9126 18.9558 10.5291 19.5971C11.8861 21.0541 13.058 22.6841 14.546 24.5481C15.813 22.9711 16.9361 21.737 17.8661 20.372C18.2666 19.6834 18.8622 19.1289 19.5778 18.7788C20.2933 18.4287 21.0965 18.2986 21.886 18.405C29.353 18.933 36.831 19.31 44.303 19.761C46.051 19.861 47.303 20.645 47.411 22.551C47.511 24.196 46.3111 25.2821 44.2111 25.4301C38.5601 25.8301 32.9111 26.237 27.2511 26.53C25.8111 26.605 25.19 26.882 25.02 28.53C23.393 44.293 21.6201 60.04 19.9751 75.801C19.9661 76.5723 19.7162 77.3217 19.2604 77.9441C18.8046 78.5664 18.1656 79.0306 17.433 79.2719H11.3521C9.40905 78.3719 9.167 76.6111 8.974 74.7661C8.01533 65.5941 7.02641 56.4274 6.00708 47.2661C5.91181 46.574 5.5537 45.945 5.00708 45.51C4.13784 44.9323 3.41234 44.1635 2.88611 43.2622C2.35988 42.3609 2.04686 41.351 1.97107 40.31C1.40107 35.852 0.670981 31.41 0.00598145 26.969L0 23.728Z" fill="white"/>
<path d="M34.4589 79.2781C31.3669 78.2471 28.907 76.5221 28.029 73.1841C27.5879 71.5069 27.7 69.7321 28.3487 68.1238C28.9973 66.5154 30.1479 65.1594 31.6291 64.2575C33.1103 63.3557 34.843 62.9561 36.5696 63.1181C38.2962 63.2802 39.9244 63.9952 41.212 65.157C41.565 65.466 41.893 65.8031 42.212 66.1101C52.483 62.1751 56.401 46.9441 49.272 38.0381C49.037 38.8821 49.042 39.7972 48.587 40.2742C47.923 40.9742 46.774 41.9139 46.116 41.7309C45.299 41.5039 44.151 40.1661 44.231 39.4311C44.5507 36.4837 45.1387 33.5714 45.988 30.7309C46.188 30.0559 47.8169 29.3421 48.7129 29.4311C51.1839 29.7583 53.6352 30.2198 56.056 30.8139C57.564 31.1269 58.588 31.985 58.284 33.626C57.984 35.242 56.7839 35.7441 55.2239 35.4971C54.7079 35.4161 54.188 35.355 54.004 35.331C55.084 38.564 56.547 41.7801 57.212 45.1531C58.166 49.9942 57.5416 55.0138 55.4305 59.4736C53.3194 63.9334 49.8329 67.598 45.4839 69.9289C44.98 70.1519 44.547 70.5093 44.2322 70.9617C43.9174 71.414 43.733 71.9441 43.699 72.4941C43.183 76.1771 40.579 78.1 37.294 79.282L34.4589 79.2781ZM35.91 74.3401C36.7611 74.3061 37.5675 73.9499 38.1659 73.3437C38.7644 72.7375 39.1101 71.9264 39.133 71.0749C39.1323 70.6528 39.0481 70.2352 38.8849 69.8459C38.7218 69.4566 38.483 69.1033 38.1825 68.8069C37.8821 68.5104 37.5259 68.2765 37.1344 68.1186C36.743 67.9607 36.324 67.8819 35.9019 67.8869C35.4802 67.8801 35.0615 67.9585 34.6708 68.1174C34.2802 68.2763 33.9256 68.5127 33.6285 68.812C33.3313 69.1113 33.0977 69.4676 32.9416 69.8594C32.7855 70.2512 32.7101 70.6704 32.72 71.092C32.716 71.9447 33.0489 72.7645 33.6464 73.3728C34.2439 73.9811 35.0574 74.3287 35.91 74.3401V74.3401Z" fill="white"/>
<path d="M14.3228 16.1601C12.7254 16.0992 11.182 15.5658 9.88767 14.6277C8.59335 13.6895 7.60641 12.3885 7.05149 10.8894C6.49656 9.39022 6.39858 7.76032 6.77011 6.20554C7.14165 4.65075 7.96602 3.24106 9.13877 2.15476C10.3115 1.06845 11.78 0.354385 13.3586 0.102754C14.9372 -0.148877 16.5551 0.0730708 18.0074 0.740938C19.4598 1.4088 20.6815 2.49248 21.518 3.85471C22.3545 5.21693 22.7682 6.79663 22.7069 8.39401C22.6241 10.5354 21.6945 12.5562 20.1224 14.0124C18.5503 15.4687 16.4643 16.2413 14.3228 16.1601Z" fill="white"/>
<path d="M70.5391 46.2099C71.5391 44.9939 72.162 44.0941 72.932 43.3471C73.1484 43.1244 73.4072 42.9469 73.693 42.8254C73.9788 42.7039 74.286 42.6408 74.5965 42.6396C74.9071 42.6384 75.2149 42.6991 75.5017 42.8183C75.7885 42.9375 76.0485 43.1127 76.2667 43.3337C76.4849 43.5547 76.6569 43.8171 76.7725 44.1054C76.888 44.3937 76.9448 44.7021 76.9396 45.0126C76.9344 45.3232 76.8673 45.6295 76.7422 45.9138C76.6171 46.198 76.4365 46.4543 76.2111 46.6679C75.4641 47.4419 74.6031 48.1061 73.2411 49.3061C74.3131 50.0611 75.1361 50.5461 75.8411 51.1601C77.0701 52.2221 77.503 53.4941 76.323 54.8601C75.305 56.0401 73.936 55.8961 72.463 54.4541C71.8427 53.7754 71.2609 53.0626 70.7201 52.319C69.5661 53.419 68.776 54.2189 67.926 54.9589C67.718 55.1864 67.4643 55.3675 67.1814 55.4899C66.8985 55.6124 66.5929 55.6736 66.2847 55.6696C65.9764 55.6657 65.6725 55.5967 65.3928 55.467C65.1132 55.3373 64.8641 55.1497 64.662 54.9169C64.4268 54.7167 64.2375 54.4683 64.1068 54.1884C63.9761 53.9086 63.9071 53.6038 63.9044 53.2949C63.9018 52.986 63.9655 52.6802 64.0914 52.3981C64.2173 52.1161 64.4023 51.8644 64.634 51.6601C65.6316 50.7911 66.6874 49.9911 67.7941 49.2661C66.3941 48.1321 65.554 47.552 64.839 46.841C63.723 45.731 63.515 44.4111 64.707 43.2761C64.9324 43.0411 65.2059 42.8575 65.5088 42.738C65.8117 42.6185 66.1368 42.5659 66.4619 42.5837C66.787 42.6014 67.1045 42.6892 67.3926 42.841C67.6806 42.9928 67.9325 43.205 68.131 43.4631C68.852 44.1811 69.4751 44.9879 70.5391 46.2099Z" fill="white"/>
<path d="M38.802 51.898C39.8247 52.6308 40.8016 53.4257 41.727 54.2781C42.15 54.7199 42.3816 55.3106 42.3713 55.9221C42.361 56.5337 42.1098 57.1167 41.6722 57.544C41.2346 57.9713 40.646 58.2084 40.0344 58.2041C39.4228 58.1999 38.8376 57.9544 38.406 57.521C37.5046 56.5229 36.6542 55.4799 35.858 54.396C34.892 55.668 34.3701 56.4681 33.7361 57.1651C32.6251 58.3891 31.276 58.7451 30.047 57.4651C28.818 56.1851 29.2731 54.8652 30.4761 53.7652C31.1211 53.1712 31.797 52.6101 33.171 51.4141C32.2478 50.9234 31.3682 50.3547 30.542 49.7141C29.052 48.3141 28.899 46.8962 30.076 45.8782C31.422 44.7132 32.697 45.0912 33.776 46.3262C34.394 47.0312 34.9331 47.8041 35.8761 49.0191C36.6704 47.9219 37.5256 46.8703 38.438 45.8692C38.6429 45.6382 38.8957 45.4546 39.1787 45.3311C39.4617 45.2076 39.7683 45.1471 40.077 45.1538C40.3857 45.1606 40.6892 45.2344 40.9665 45.3701C41.2439 45.5059 41.4883 45.7003 41.683 45.94C41.9145 46.143 42.1005 46.3929 42.2286 46.6729C42.3567 46.9529 42.4242 47.2568 42.4265 47.5647C42.4288 47.8726 42.3658 48.1776 42.2418 48.4595C42.1178 48.7414 41.9355 48.9936 41.707 49.2C40.989 49.992 40.137 50.671 38.802 51.898Z" fill="#FADB05"/>
<path d="M62.862 74.5563C62.1344 75.695 61.3326 76.7846 60.462 77.8182C60.0295 78.2419 59.4484 78.4796 58.8429 78.4803C58.2374 78.4811 57.6556 78.2448 57.222 77.8221C56.7884 77.3995 56.5375 76.8242 56.5227 76.2189C56.5079 75.6136 56.7306 75.0264 57.1431 74.5831C58.1313 73.6508 59.1659 72.7692 60.243 71.9413C59.076 71.0663 58.2851 70.5532 57.5901 69.9342C56.3741 68.8522 55.925 67.5342 57.171 66.2452C58.417 64.9562 59.739 65.3082 60.862 66.5262C61.5 67.2172 62.0471 67.9912 63.1321 69.3502C63.8624 68.2593 64.6543 67.2108 65.504 66.2101C65.6971 65.9692 65.9409 65.7738 66.218 65.6376C66.4951 65.5014 66.7987 65.4277 67.1074 65.422C67.4161 65.4163 67.7224 65.4785 68.0044 65.6044C68.2863 65.7302 68.5371 65.9167 68.739 66.1503C68.9897 66.3571 69.1921 66.6163 69.3319 66.9098C69.4717 67.2033 69.5454 67.5239 69.548 67.849C69.5505 68.174 69.4819 68.4955 69.3468 68.7911C69.2117 69.0868 69.0134 69.3494 68.766 69.5602C68.035 70.3362 67.152 70.9681 65.696 72.2111C66.6715 72.8255 67.6138 73.4913 68.519 74.2052C69.695 75.2482 69.9571 76.5792 68.8351 77.7562C67.6121 79.0402 66.264 78.6931 65.146 77.4801C64.5 76.7871 63.971 75.9933 62.862 74.5563Z" fill="white"/>
<path d="M35.91 74.34C35.0575 74.3287 34.2439 73.981 33.6465 73.3727C33.049 72.7644 32.7161 71.9446 32.7201 71.092C32.7102 70.6703 32.7855 70.2511 32.9417 69.8593C33.0978 69.4675 33.3314 69.1112 33.6285 68.8119C33.9257 68.5126 34.2802 68.2763 34.6709 68.1174C35.0616 67.9584 35.4803 67.88 35.902 67.8869C36.3241 67.8819 36.7431 67.9607 37.1345 68.1186C37.526 68.2765 37.8822 68.5103 38.1826 68.8068C38.4831 69.1033 38.7219 69.4566 38.885 69.8459C39.0481 70.2352 39.1324 70.6528 39.1331 71.0749C39.1101 71.9264 38.7644 72.7375 38.166 73.3437C37.5676 73.9499 36.7612 74.3061 35.91 74.34Z" fill="white"/>
</g>
<defs>
<clipPath id="clip0_21_905">
<rect width="77.023" height="79.278" fill="white"/>
</clipPath>
</defs>
</svg>
