<svg xmlns="http://www.w3.org/2000/svg" width="337.613" height="57.686" viewBox="0 0 337.613 57.686">
  <g id="Group_15" data-name="Group 15" transform="translate(-179.397 -80.694)">
    <path id="Path_91867" data-name="Path 91867" d="M383.657,115a18.308,18.308,0,0,1,2.157-8.049,18.054,18.054,0,0,1,6.165-7.065,13.921,13.921,0,0,1,7.78-2.709A7.462,7.462,0,0,1,405.4,99.5a8.751,8.751,0,0,1,2.215,6.295A19.116,19.116,0,0,1,398.97,121.5a13.856,13.856,0,0,1-7.3,2.293,8.586,8.586,0,0,1-5.605-1.969Q383.656,119.858,383.657,115Z"/>
    <path id="Path_91868" data-name="Path 91868" d="M403.651,102.775a4.435,4.435,0,0,0-1.021-3.186,4.064,4.064,0,0,0-3.063-1.063q-4.816,0-8.3,7.25t-3.486,12.759a4.025,4.025,0,0,0,1.079,2.832,3.832,3.832,0,0,0,2.966,1.17q5.163,0,8.495-7.818T403.651,102.775Z" fill="#ffdb00"/>
    <path id="Path_91869" data-name="Path 91869" d="M197.272,105.719v10a4.651,4.651,0,0,0,.81,3.078,3.789,3.789,0,0,0,2.888.954v3.263H179.4v-3.263q3.353,0,4.276-.846a4.257,4.257,0,0,0,.925-3.186V107.1a4.441,4.441,0,0,0-.905-3.216q-.906-.877-4.3-.877V99.747L196.5,97.5a8.889,8.889,0,0,1,.77,3.694,18.273,18.273,0,0,1,5.336-3.31,15.8,15.8,0,0,1,5.8-1.092q5.394,0,8.476,2.385a7.823,7.823,0,0,1,3.082,6.541v10a4.2,4.2,0,0,0,.944,3.17q.942.863,4.1.862v3.263H203.552v-3.263a5.491,5.491,0,0,0,2.716-.739q1.1-.676,1.1-3.293v-9.235a5.117,5.117,0,0,0-.866-3.447,3.243,3.243,0,0,0-2.485-.924,7.084,7.084,0,0,0-3.313.893A13.647,13.647,0,0,0,197.272,105.719Z"/>
    <path id="Path_91870" data-name="Path 91870" d="M226.5,110.337a11.226,11.226,0,0,1,5.625-9.943,24.7,24.7,0,0,1,13.6-3.6,25.7,25.7,0,0,1,13.559,3.494,11.121,11.121,0,0,1,5.779,10.081q0,6.249-5.663,9.957a24.47,24.47,0,0,1-13.714,3.71,25.071,25.071,0,0,1-13.522-3.524A11.291,11.291,0,0,1,226.5,110.337Zm13.214-.308q0,5.91,1.368,8.265t4.757,2.355a5.4,5.4,0,0,0,4.372-1.97q1.638-1.97,1.637-8.4,0-5.847-1.463-7.926a5.264,5.264,0,0,0-4.623-2.077,5.832,5.832,0,0,0-4.277,1.769Q239.712,103.811,239.713,110.029Z"/>
    <path id="Path_91871" data-name="Path 91871" d="M284.355,101.133v13.144a11.293,11.293,0,0,0,.539,4.356,2.26,2.26,0,0,0,2.235,1.062,4.634,4.634,0,0,0,4.083-2.525l3.775,1.017q-2.926,5.847-12.519,5.848-5.28,0-7.937-2.047a7.269,7.269,0,0,1-2.657-6.141V101.133H267.29V97.808l.963.031a13.34,13.34,0,0,0,7.974-2.37,9.408,9.408,0,0,0,4.006-6.033h4.122v8.372h9.477v3.325Z"/>
    <path id="Path_91872" data-name="Path 91872" d="M310.216,110.121q0,5.018,2.138,7.543t6.415,2.523a11.8,11.8,0,0,0,8.359-3.694l3.583,1.724a16.134,16.134,0,0,1-6.3,4.171,24.144,24.144,0,0,1-9.073,1.647,22.588,22.588,0,0,1-13.059-3.71,11.545,11.545,0,0,1-5.431-10.019,11.382,11.382,0,0,1,5.259-9.912,21.85,21.85,0,0,1,12.654-3.6q7.434,0,12.193,3.309t4.757,10.019Zm-.038-3.109h9.746q-.231-6.8-4.969-6.8a4.1,4.1,0,0,0-3.583,1.693A8.9,8.9,0,0,0,310.178,107.012Z"/>
    <path id="Path_91873" data-name="Path 91873" d="M337.428,101.687h-1.657q1.5-4.585,4.045-4.586a4.827,4.827,0,0,1,3.2,1.539,4.536,4.536,0,0,0,2.736,1.477q1.077,0,1.54-1.385.617-1.785,1.811-1.786t1.194.862a15.045,15.045,0,0,1-2.119,3.325q-4.893,6.649-6.375,11.02a23.067,23.067,0,0,0-1.483,6,3.932,3.932,0,0,0,.943,2.662,3.346,3.346,0,0,0,2.678,1.093,12.178,12.178,0,0,0,5.894-1.939,27.567,27.567,0,0,0,5.354-3.879,10.977,10.977,0,0,1-.115-1.631,23.626,23.626,0,0,1,3.2-11.928q3.2-5.587,6.742-5.588a2.711,2.711,0,0,1,2.176.832,3.748,3.748,0,0,1,.713,2.494,12.5,12.5,0,0,1-1.983,6.217,36.784,36.784,0,0,1-5.991,7.326,11.827,11.827,0,0,0,1.945,6.064,4.8,4.8,0,0,0,3.987,2.155,9.55,9.55,0,0,0,5.278-2.14,18.864,18.864,0,0,0,5.374-6.464,16,16,0,0,0,2.369-7.311,7.9,7.9,0,0,0-1.233-3.908,6.735,6.735,0,0,1-1.116-3.2,1.9,1.9,0,0,1,.635-1.508,2.048,2.048,0,0,1,1.367-.555,2.573,2.573,0,0,1,2,1.2,6.671,6.671,0,0,1,.925,4,26.545,26.545,0,0,1-2.446,9.9,19.493,19.493,0,0,1-6.819,8.835,14.91,14.91,0,0,1-8.378,3,7.659,7.659,0,0,1-5.49-1.985,8.718,8.718,0,0,1-2.639-4.11,32.006,32.006,0,0,1-7.126,4.587,16.079,16.079,0,0,1-6.589,1.539,6.726,6.726,0,0,1-4.834-1.57,5.2,5.2,0,0,1-1.637-3.91q0-5.139,8.282-14.528,2.042-2.249,2.389-2.771a7.68,7.68,0,0,1-3.12.739,4.8,4.8,0,0,1-2.851-1.139,1.965,1.965,0,0,0-1.156-.524q-.924,0-1.5,1.2Zm22.189,10.251a34.277,34.277,0,0,0,4.912-6.449,11.1,11.1,0,0,0,1.636-5.28,2.549,2.549,0,0,0-.327-1.431,1.154,1.154,0,0,0-1.021-.477q-1.54,0-3.409,3.078t-1.868,8.958Q359.54,111.015,359.617,111.938Z"/>
    <path id="Path_91874" data-name="Path 91874" d="M412.592,105.257H410.9a20.392,20.392,0,0,1,4.064-5.878,7.017,7.017,0,0,1,4.834-2.433,2.9,2.9,0,0,1,2.465,1.063,5.269,5.269,0,0,1,.81,3.217,25.268,25.268,0,0,1-1.734,7.633q.232-.306,1.271-2.216a38.253,38.253,0,0,1,5.008-7.419,6.1,6.1,0,0,1,4.315-2.278,3.255,3.255,0,0,1,2.157.678,2.062,2.062,0,0,1,.809,1.631,1.907,1.907,0,0,1-.674,1.509,2.358,2.358,0,0,1-1.6.585,3.157,3.157,0,0,1-2.12-1.016,1.247,1.247,0,0,0-.846-.4q-1.928,0-5.933,7.4a114.6,114.6,0,0,0-6.472,13.928l-.847,2.217h-4.623l6.125-16.314a23.2,23.2,0,0,0,1.734-6.342,2.416,2.416,0,0,0-.29-1.323.971.971,0,0,0-.867-.431q-1.27,0-3.178,2.185A16.679,16.679,0,0,0,412.592,105.257Z"/>
    <path id="Path_91875" data-name="Path 91875" d="M453.549,97.808l-.54,1.355h-5.778l-5.085,13.452q-2.543,6.618-2.543,7.695a1.482,1.482,0,0,0,.4,1.124,1.644,1.644,0,0,0,1.175.385q1.387,0,3.621-2.094a21.533,21.533,0,0,0,4.006-5.263h1.7a21.088,21.088,0,0,1-5.374,7q-3.024,2.415-5.528,2.416a4.394,4.394,0,0,1-3.14-1.108,3.685,3.685,0,0,1-1.174-2.8q0-1.447,2.388-7.7l4.97-13.113H437.33l.539-1.355h5.279l3.544-9.326h4.623l-3.545,9.326Z"/>
    <path id="Path_91876" data-name="Path 91876" d="M454.95,123.481h-4.584l13.521-35.553a19.084,19.084,0,0,0,1.156-3.51,1.087,1.087,0,0,0-.52-1.015,6.334,6.334,0,0,0-2.562-.308h-1.233l.462-1.293a33.149,33.149,0,0,0,9.092-1.108h.963L462.5,103.657q6.934-6.711,12.636-6.711a6.932,6.932,0,0,1,3.852.862,2.947,2.947,0,0,1,1.272,2.617q0,1.386-2.273,6.587l-3.391,7.727a26.945,26.945,0,0,0-1.964,5.233,1.617,1.617,0,0,0,.385,1.169,1.528,1.528,0,0,0,1.156.4,5.356,5.356,0,0,0,3.12-1.324,12.307,12.307,0,0,0,2.967-3.294h1.887a17.362,17.362,0,0,1-4.661,5.049,8.977,8.977,0,0,1-5.123,1.908,4.64,4.64,0,0,1-3.044-1.046,3.41,3.41,0,0,1-1.271-2.771q0-1.847,2.157-6.557l3.274-7.11q2.272-4.895,2.273-6.156a1.343,1.343,0,0,0-.52-1.155,2.689,2.689,0,0,0-1.6-.385,9.761,9.761,0,0,0-4.083,1.124,17.629,17.629,0,0,0-4.892,3.755,21.214,21.214,0,0,0-3.718,4.941,77.627,77.627,0,0,0-3.062,7.357Z"/>
    <path id="Path_91877" data-name="Path 91877" d="M485.145,105.289h-1.618q.463-4.371,2.408-6.357a5.805,5.805,0,0,1,4.179-1.986,5.179,5.179,0,0,1,4.566,2.786q1.715,2.787,1.714,8.481a41.492,41.492,0,0,1-2.119,13.574,47.414,47.414,0,0,0,7.377-8.372q3.6-5.079,3.6-8.65a5.608,5.608,0,0,0-1.232-3.355,4.926,4.926,0,0,1-1.233-2.462,1.924,1.924,0,0,1,.6-1.4,1.963,1.963,0,0,1,1.444-.6,2.675,2.675,0,0,1,2.273,1.263,6.473,6.473,0,0,1,.886,3.724q0,3.695-2.831,9a42.311,42.311,0,0,1-8.3,10.528,141.973,141.973,0,0,1-10.883,9.419,44.406,44.406,0,0,1-9.284,5.849A19.527,19.527,0,0,1,469,138.38q-4.891,0-4.892-2.247a1.626,1.626,0,0,1,1.04-1.462,4.7,4.7,0,0,1,2.2-.54,15.06,15.06,0,0,1,2.773.4,19.192,19.192,0,0,0,4.046.554,10.607,10.607,0,0,0,4.525-1.031,30.17,30.17,0,0,0,5.471-3.571,21.364,21.364,0,0,0,4.565-4.493,20.914,20.914,0,0,0,2.33-6.88,52.107,52.107,0,0,0,1.022-10.589,17.428,17.428,0,0,0-1-6.649q-1-2.338-2.465-2.34Q485.8,99.532,485.145,105.289Z"/>
    <path id="Path_91878" data-name="Path 91878" d="M508.881,120.649a2.839,2.839,0,0,1,1.195-2.278,4.489,4.489,0,0,1,2.889-.954,4.434,4.434,0,0,1,2.851.954,2.8,2.8,0,0,1,0,4.587,4.79,4.79,0,0,1-5.759-.016A2.894,2.894,0,0,1,508.881,120.649Z"/>
  </g>
</svg>
