<svg width="82" height="77" viewBox="0 0 82 77" fill="none" xmlns="http://www.w3.org/2000/svg">
<g clip-path="url(#clip0_21_891)">
<path d="M0 28.067C4.441 23.732 8.865 19.379 13.328 15.067C15.181 13.278 16.082 13.559 16.744 16.098C18.136 21.436 19.5054 26.78 20.8521 32.13C21.6071 35.122 21.01 35.6729 17.988 34.8729C17.172 34.6579 16.3491 34.4731 15.2771 34.2081C14.4935 37.6838 14.5991 41.3009 15.5841 44.7249C18.6091 57.2809 29.7131 66.4921 42.0291 66.7611C48.4985 66.9198 54.8385 64.9329 60.0603 61.1104C65.2821 57.288 69.0922 51.8448 70.8961 45.63C71.1111 44.897 71.3261 44.1621 71.4911 43.4171C71.8461 41.8171 72.7911 41.37 74.3151 41.848C82.3371 44.36 82.373 42.3761 79.285 51.0111C76.4247 58.8629 71.1041 65.5801 64.116 70.1624C57.1278 74.7447 48.8462 76.9467 40.505 76.44C32.209 75.8606 24.334 72.5687 18.0938 67.0716C11.8535 61.5746 7.59432 54.1777 5.97302 46.0211C5.03902 41.3511 5.27303 36.448 4.95203 31.381L0 29.597V28.067Z" fill="white"/>
<path d="M41.8601 0C42.2171 2.672 42.6601 5.33797 42.8601 8.02197C42.8043 8.38926 42.6547 8.73577 42.4258 9.02832C42.1968 9.32087 41.8962 9.5495 41.5531 9.69189C40.4981 9.83389 38.4721 9.60588 38.4181 9.27588C37.9181 6.21388 36.482 3.097 38.289 0H41.8601Z" fill="white"/>
<path d="M77.3929 21.5668C76.3515 22.3975 75.2442 23.142 74.0819 23.7929C72.4879 24.5619 70.5389 25.8249 69.1239 25.4479C66.9599 24.8709 67.1449 22.0359 69.1859 20.8349C70.5039 20.0599 71.8289 19.2988 73.1699 18.5658C75.2479 17.4268 77.3169 18.6138 77.3929 21.5668Z" fill="white"/>
<path d="M32.2472 11.5969C31.3623 12.3196 30.3761 12.9086 29.3202 13.345C28.912 13.3744 28.5027 13.3057 28.1264 13.1448C27.7502 12.9839 27.4179 12.7354 27.1572 12.4199C26.2072 11.0479 25.6381 9.41998 24.7741 7.97998C23.7741 6.31398 23.7371 5.19381 25.7331 4.15381C27.8771 3.03681 28.5721 4.16101 29.3221 5.78101C30.1661 7.60201 31.1222 9.36693 32.2472 11.5969Z" fill="white"/>
<path d="M68.8872 9.9279C68.2382 10.9029 67.8622 11.5439 67.4122 12.1279C66.4322 13.4009 65.3831 14.6229 64.4191 15.9079C63.2781 17.4279 62.2191 16.9508 60.9931 15.9838C59.8051 15.0478 59.2931 14.1578 60.4041 12.8278C61.6511 11.3348 62.7571 9.71489 64.0961 8.31389C64.3789 8.04797 64.721 7.85348 65.0941 7.74651C65.4672 7.63953 65.8605 7.62319 66.2412 7.6989C67.2198 8.31896 68.1099 9.06878 68.8872 9.9279V9.9279Z" fill="white"/>
<path d="M56.4432 3.13184C55.8163 5.53924 55.0483 7.90768 54.1432 10.2249C53.8952 10.7739 52.2621 11.1248 51.4731 10.8838C50.6841 10.6428 49.5291 9.44291 49.6291 8.84791C50.0134 6.59569 50.673 4.39919 51.5931 2.30787C51.8321 1.76487 53.3931 1.46901 54.2501 1.62501C55.0821 1.77801 55.7872 2.65084 56.4432 3.13184Z" fill="white"/>
<path d="M81.6751 34.3669C80.9061 34.9569 80.2161 35.8469 79.3521 36.0729C77.7231 36.4989 75.9831 36.4779 74.3091 36.7609C72.4461 37.0759 71.7142 36.3118 71.4902 34.4978C71.2502 32.5478 72.1431 31.8889 73.8691 31.7309C75.3911 31.5919 76.9151 31.4119 78.4201 31.1479C80.5821 30.7669 81.4871 31.6339 81.6751 34.3669Z" fill="white"/>
<path d="M27.4093 46.481V43.1898L35.0992 36.0694C35.7533 35.4365 36.3018 34.8669 36.7448 34.3606C37.1949 33.8542 37.536 33.3584 37.7681 32.8732C38.0001 32.3809 38.1162 31.85 38.1162 31.2804C38.1162 30.6474 37.972 30.1024 37.6837 29.6453C37.3953 29.1812 37.0015 28.826 36.5022 28.5799C36.0029 28.3267 35.4368 28.2001 34.8039 28.2001C34.1428 28.2001 33.5662 28.3338 33.0739 28.601C32.5816 28.8682 32.2019 29.2515 31.9347 29.7508C31.6674 30.2501 31.5338 30.8443 31.5338 31.5335H27.1983C27.1983 30.12 27.5183 28.8928 28.1582 27.852C28.7982 26.8112 29.6948 26.006 30.8481 25.4364C32.0015 24.8668 33.3306 24.582 34.8355 24.582C36.3827 24.582 37.7294 24.8562 38.8757 25.4048C40.029 25.9463 40.9256 26.6987 41.5656 27.6622C42.2055 28.6256 42.5255 29.7297 42.5255 30.9744C42.5255 31.7902 42.3638 32.5954 42.0403 33.3901C41.7238 34.1847 41.1577 35.0673 40.3419 36.0378C39.5262 37.0012 38.3764 38.1581 36.8925 39.5083L33.7385 42.5991V42.7467H42.8103V46.481H27.4093ZM45.3288 42.6834V39.0864L54.3479 24.8773H57.4492V29.8563H55.6137L49.928 38.8543V39.0231H62.7446V42.6834H45.3288ZM55.6981 46.481V41.5864L55.7825 39.9935V24.8773H60.0653V46.481H55.6981Z" fill="white"/>
</g>
<defs>
<clipPath id="clip0_21_891">
<rect width="81.675" height="76.529" fill="white"/>
</clipPath>
</defs>
</svg>
